<?xml version="1.0" encoding="utf-8"?>
<!-- Generator: Adobe Illustrator 16.0.0, SVG Export Plug-In . SVG Version: 6.00 Build 0)  -->
<!DOCTYPE svg PUBLIC "-//W3C//DTD SVG 1.1//EN" "http://www.w3.org/Graphics/SVG/1.1/DTD/svg11.dtd">
<svg version="1.1" id="Ebene_1" xmlns="http://www.w3.org/2000/svg" xmlns:xlink="http://www.w3.org/1999/xlink" x="0px" y="0px"
	 width="206px" height="81px" viewBox="-2.5 11.5 206 81" enable-background="new -2.5 11.5 206 81" xml:space="preserve">
<g>
	<g id="Name" transform="scale(1,-1) translate(0,-104)">
		<path d="M57.158,88.727c0-0.379-0.047-0.712-0.143-0.996c-0.095-0.284-0.224-0.53-0.388-0.735
			c-0.164-0.206-0.353-0.372-0.569-0.498c-0.216-0.127-0.44-0.222-0.672-0.284v-0.032c0.285-0.053,0.551-0.153,0.799-0.301
			s0.464-0.332,0.648-0.553c0.185-0.222,0.333-0.482,0.443-0.783c0.11-0.301,0.166-0.63,0.166-0.988
			c0-0.433-0.073-0.827-0.221-1.186c-0.147-0.358-0.377-0.67-0.688-0.933c-0.311-0.264-0.703-0.47-1.178-0.617
			c-0.474-0.147-1.038-0.222-1.691-0.222h-2.23V91.51h2.104c0.643,0,1.194-0.065,1.652-0.197c0.458-0.133,0.835-0.319,1.13-0.563
			c0.295-0.241,0.509-0.534,0.641-0.877C57.092,89.53,57.158,89.148,57.158,88.727z M55.767,88.68c0,0.506-0.179,0.922-0.538,1.249
			c-0.358,0.327-0.922,0.49-1.691,0.49H52.81v-3.764h0.711c0.738,0,1.297,0.179,1.676,0.538
			C55.577,87.551,55.767,88.047,55.767,88.68z M55.972,83.65c0,0.591-0.193,1.057-0.578,1.4c-0.385,0.342-0.936,0.514-1.652,0.514
			H52.81v-3.827h0.854c0.812,0,1.399,0.161,1.763,0.482C55.791,82.541,55.972,83.019,55.972,83.65z M64.448,80.599h-1.17v0.854
			h-0.031c-0.032-0.063-0.101-0.155-0.206-0.276c-0.106-0.121-0.24-0.237-0.403-0.348s-0.361-0.208-0.593-0.292
			c-0.231-0.085-0.49-0.127-0.775-0.127c-0.337,0-0.64,0.05-0.909,0.15c-0.269,0.1-0.499,0.261-0.688,0.481
			c-0.19,0.222-0.335,0.509-0.435,0.862c-0.101,0.354-0.15,0.788-0.15,1.305v4.98h1.281v-4.886c0-0.632,0.103-1.083,0.308-1.352
			c0.206-0.27,0.525-0.404,0.957-0.404c0.369,0,0.68,0.093,0.933,0.277c0.253,0.185,0.453,0.366,0.601,0.546v5.818h1.281V80.599z
			 M70.552,80.599v4.887c0,0.643-0.108,1.104-0.324,1.383c-0.216,0.28-0.545,0.42-0.989,0.42c-0.379,0-0.695-0.095-0.948-0.285
			c-0.253-0.189-0.454-0.374-0.601-0.554v-5.851h-1.281v7.59h1.17v-0.854h0.032c0.032,0.063,0.1,0.155,0.206,0.277
			c0.105,0.12,0.243,0.236,0.412,0.348c0.168,0.11,0.368,0.208,0.601,0.293c0.232,0.084,0.495,0.126,0.791,0.126
			c0.337,0,0.643-0.051,0.917-0.15c0.273-0.1,0.506-0.261,0.695-0.482c0.19-0.221,0.337-0.509,0.442-0.861
			c0.106-0.354,0.159-0.788,0.159-1.305v-4.981H70.552z M73.398,84.283c0,0.77,0.1,1.413,0.3,1.93
			c0.201,0.516,0.459,0.933,0.775,1.249c0.316,0.316,0.675,0.54,1.075,0.672c0.401,0.132,0.801,0.197,1.202,0.197
			c0.242,0,0.453-0.019,0.632-0.056c0.18-0.036,0.327-0.081,0.443-0.134v3.637l1.281,0.143V80.599h-1.17v0.807h-0.031
			c-0.032-0.063-0.089-0.15-0.174-0.261c-0.084-0.111-0.201-0.222-0.349-0.332c-0.147-0.11-0.332-0.206-0.553-0.285
			c-0.221-0.079-0.479-0.118-0.775-0.118c-0.358,0-0.698,0.07-1.02,0.214c-0.321,0.142-0.603,0.368-0.846,0.68
			c-0.242,0.311-0.435,0.711-0.577,1.201S73.398,83.587,73.398,84.283z M76.402,81.547c0.2,0,0.379,0.027,0.538,0.08
			c0.158,0.052,0.295,0.118,0.412,0.197c0.116,0.079,0.213,0.161,0.292,0.245c0.079,0.085,0.14,0.158,0.182,0.222v4.681
			c-0.116,0.073-0.25,0.137-0.404,0.189c-0.152,0.053-0.345,0.079-0.577,0.079c-0.295,0-0.572-0.05-0.831-0.149
			c-0.258-0.101-0.482-0.268-0.671-0.499c-0.19-0.232-0.34-0.532-0.451-0.901c-0.111-0.369-0.166-0.822-0.166-1.359
			c0-0.527,0.045-0.968,0.134-1.32c0.09-0.354,0.213-0.638,0.372-0.854c0.158-0.217,0.337-0.371,0.538-0.466
			C75.97,81.595,76.181,81.547,76.402,81.547z M85.938,85.627c0-0.327-0.01-0.608-0.031-0.846c-0.021-0.237-0.042-0.445-0.063-0.625
			h-3.874c0.042-0.896,0.235-1.555,0.577-1.977c0.343-0.422,0.835-0.633,1.478-0.633c0.222,0,0.422,0.027,0.601,0.08
			c0.18,0.052,0.334,0.115,0.467,0.189c0.131,0.073,0.242,0.147,0.332,0.222c0.089,0.073,0.155,0.132,0.198,0.174l0.474-0.901
			c-0.052-0.054-0.132-0.129-0.237-0.229c-0.105-0.101-0.247-0.2-0.427-0.301c-0.179-0.1-0.4-0.187-0.664-0.261
			c-0.263-0.073-0.575-0.11-0.933-0.11c-0.474,0-0.904,0.078-1.289,0.237c-0.385,0.158-0.711,0.403-0.98,0.735
			s-0.478,0.753-0.625,1.265c-0.148,0.512-0.221,1.125-0.221,1.842c0,0.675,0.076,1.258,0.229,1.748s0.361,0.893,0.625,1.21
			c0.264,0.315,0.569,0.551,0.917,0.703c0.349,0.153,0.722,0.229,1.123,0.229c0.728,0,1.296-0.229,1.708-0.688
			C85.732,87.232,85.938,86.545,85.938,85.627z M83.534,87.335c-0.454,0-0.817-0.189-1.091-0.569
			c-0.274-0.379-0.432-0.928-0.474-1.645h2.767c0.01,0.053,0.019,0.129,0.024,0.229c0.005,0.101,0.008,0.208,0.008,0.324
			c0,0.527-0.105,0.936-0.316,1.226S83.935,87.335,83.534,87.335z M90.918,86.655c-0.084,0.095-0.237,0.224-0.458,0.387
			c-0.221,0.164-0.511,0.246-0.87,0.246c-0.337,0-0.596-0.08-0.774-0.238c-0.179-0.157-0.269-0.348-0.269-0.568
			c0-0.285,0.082-0.52,0.244-0.704c0.164-0.185,0.414-0.382,0.751-0.593l0.475-0.285c0.516-0.305,0.922-0.635,1.218-0.987
			c0.295-0.354,0.442-0.81,0.442-1.368c0-0.601-0.208-1.106-0.625-1.519c-0.416-0.411-1.014-0.616-1.794-0.616
			c-0.306,0-0.574,0.031-0.807,0.095c-0.231,0.063-0.435,0.137-0.608,0.222c-0.174,0.084-0.319,0.176-0.435,0.276
			c-0.116,0.101-0.21,0.192-0.285,0.276l0.617,1.013c0.063-0.063,0.14-0.137,0.229-0.222c0.089-0.084,0.198-0.166,0.324-0.245
			s0.269-0.146,0.427-0.197c0.158-0.053,0.342-0.08,0.553-0.08c0.38,0,0.669,0.085,0.87,0.254c0.2,0.168,0.3,0.374,0.3,0.616
			c0,0.18-0.023,0.335-0.071,0.467c-0.047,0.132-0.118,0.251-0.213,0.355c-0.095,0.105-0.211,0.206-0.348,0.301
			c-0.137,0.095-0.295,0.2-0.474,0.316l-0.474,0.3c-0.475,0.307-0.846,0.628-1.115,0.965c-0.269,0.338-0.404,0.77-0.404,1.297
			c0,0.284,0.056,0.545,0.166,0.782c0.111,0.237,0.267,0.443,0.467,0.617c0.2,0.174,0.435,0.312,0.704,0.411
			c0.269,0.1,0.556,0.15,0.861,0.15c0.295,0,0.548-0.029,0.759-0.087c0.211-0.059,0.393-0.133,0.546-0.222
			c0.152-0.09,0.279-0.18,0.379-0.269c0.1-0.09,0.182-0.166,0.245-0.229L90.918,86.655z M92.737,82.527
			c0,0.443,0.084,0.813,0.253,1.107c0.169,0.295,0.396,0.535,0.68,0.72c0.284,0.185,0.619,0.316,1.004,0.396
			c0.385,0.078,0.793,0.118,1.226,0.118h0.395v0.728c0,0.643-0.113,1.086-0.339,1.328c-0.227,0.242-0.545,0.364-0.957,0.364
			c-0.379,0-0.695-0.082-0.949-0.246c-0.253-0.163-0.454-0.308-0.601-0.435l-0.538,0.854c0.084,0.084,0.193,0.179,0.325,0.284
			c0.131,0.105,0.292,0.206,0.482,0.301c0.189,0.095,0.405,0.174,0.648,0.236c0.243,0.064,0.517,0.096,0.822,0.096
			c0.781,0,1.371-0.216,1.771-0.648s0.601-1.128,0.601-2.088V82.18c0-0.327,0.011-0.646,0.032-0.956
			c0.021-0.312,0.042-0.52,0.063-0.625h-1.217l-0.047,0.839h-0.032c-0.042-0.096-0.105-0.203-0.19-0.325
			c-0.084-0.121-0.189-0.231-0.316-0.332c-0.126-0.1-0.279-0.187-0.459-0.261c-0.179-0.073-0.39-0.11-0.632-0.11
			c-0.284,0-0.551,0.053-0.798,0.158s-0.464,0.253-0.648,0.442c-0.185,0.189-0.327,0.414-0.427,0.672
			C92.787,81.939,92.737,82.222,92.737,82.527z M95.03,81.5c0.179,0,0.337,0.026,0.475,0.079c0.137,0.053,0.255,0.116,0.355,0.189
			c0.101,0.074,0.185,0.155,0.253,0.245c0.069,0.09,0.129,0.166,0.182,0.229v1.677l-0.411-0.016
			c-0.611-0.021-1.075-0.127-1.392-0.317c-0.316-0.189-0.475-0.495-0.475-0.916c0-0.391,0.09-0.683,0.269-0.878
			C94.466,81.598,94.714,81.5,95.03,81.5z M103.475,80.599v4.887c0,0.621-0.09,1.069-0.27,1.344s-0.469,0.411-0.869,0.411
			c-0.211,0-0.396-0.026-0.561-0.079s-0.309-0.119-0.436-0.198c-0.127-0.078-0.238-0.166-0.332-0.261
			c-0.095-0.095-0.174-0.179-0.238-0.253v-5.851h-1.281v7.59h1.17v-0.854h0.032c0.053,0.084,0.132,0.188,0.237,0.309
			c0.106,0.121,0.238,0.237,0.396,0.348s0.342,0.203,0.553,0.276c0.211,0.074,0.449,0.111,0.711,0.111
			c0.865,0,1.477-0.337,1.834-1.012c0.076,0.104,0.174,0.218,0.301,0.34c0.127,0.121,0.275,0.231,0.445,0.332
			c0.168,0.1,0.357,0.182,0.568,0.244c0.209,0.064,0.441,0.096,0.695,0.096c1.539,0,2.309-0.896,2.309-2.688v-5.092h-1.281v4.887
			c0,0.621-0.111,1.069-0.332,1.344s-0.549,0.411-0.98,0.411c-0.359,0-0.656-0.087-0.895-0.261c-0.234-0.174-0.422-0.34-0.561-0.498
			c0.021-0.116,0.037-0.24,0.047-0.372c0.012-0.132,0.016-0.271,0.016-0.419v-5.092H103.475z M113.895,87.146h-1.66v-4.206
			c0-0.538,0.068-0.904,0.205-1.1c0.137-0.194,0.369-0.293,0.697-0.293c0.189,0,0.352,0.027,0.488,0.08
			c0.139,0.052,0.238,0.101,0.301,0.142l0.174-1.027c-0.051-0.043-0.178-0.108-0.379-0.197c-0.199-0.09-0.469-0.135-0.807-0.135
			c-0.654,0-1.143,0.182-1.471,0.545c-0.326,0.364-0.488,0.968-0.488,1.812v4.38h-0.92v0.854l0.92,0.189l0.141,2.119h1.139v-2.119
			h1.82L113.895,87.146z M121.896,87.146h-1.549v-6.547h-1.283v6.547h-0.916v0.854l0.916,0.174v1.519
			c0,0.411,0.059,0.764,0.174,1.059c0.117,0.296,0.271,0.538,0.461,0.728c0.189,0.19,0.41,0.327,0.664,0.412
			c0.252,0.084,0.521,0.126,0.805,0.126c0.275,0,0.508-0.037,0.697-0.111c0.189-0.073,0.316-0.131,0.379-0.174l-0.27-1.06
			c-0.063,0.043-0.152,0.088-0.268,0.136c-0.117,0.047-0.26,0.07-0.428,0.07c-0.305,0-0.537-0.095-0.695-0.284
			c-0.158-0.19-0.236-0.538-0.236-1.044v-1.36h1.707L121.896,87.146z M128.475,80.599h-1.17v0.854h-0.031
			c-0.033-0.063-0.1-0.155-0.207-0.276c-0.105-0.121-0.238-0.237-0.402-0.348c-0.162-0.11-0.359-0.208-0.594-0.292
			c-0.23-0.085-0.49-0.127-0.773-0.127c-0.338,0-0.641,0.05-0.91,0.15c-0.268,0.1-0.498,0.261-0.688,0.481
			c-0.191,0.222-0.334,0.509-0.434,0.862c-0.102,0.354-0.152,0.788-0.152,1.305v4.98h1.281v-4.886c0-0.632,0.104-1.083,0.309-1.352
			c0.205-0.27,0.523-0.404,0.957-0.404c0.369,0,0.68,0.093,0.934,0.277c0.252,0.185,0.453,0.366,0.6,0.546v5.818h1.281V80.599z
			 M125.328,90.371c0-0.242-0.074-0.438-0.221-0.585c-0.148-0.147-0.326-0.221-0.539-0.221c-0.211,0-0.391,0.073-0.537,0.221
			c-0.148,0.147-0.221,0.343-0.221,0.585s0.072,0.438,0.221,0.585c0.146,0.148,0.326,0.222,0.537,0.222
			c0.213,0,0.391-0.073,0.539-0.222C125.254,90.809,125.328,90.613,125.328,90.371z M127.762,90.371
			c0-0.242-0.072-0.438-0.221-0.585c-0.146-0.147-0.326-0.221-0.537-0.221s-0.391,0.073-0.537,0.221s-0.223,0.343-0.223,0.585
			s0.076,0.438,0.223,0.585c0.146,0.148,0.326,0.222,0.537,0.222s0.391-0.073,0.537-0.222
			C127.689,90.809,127.762,90.613,127.762,90.371z M133.771,87.066c-0.031,0.021-0.1,0.047-0.205,0.079
			c-0.105,0.031-0.248,0.048-0.426,0.048c-0.402,0-0.715-0.108-0.943-0.325c-0.225-0.216-0.387-0.45-0.48-0.703v-5.566h-1.281v7.59
			h1.17v-1.027h0.031c0.053,0.147,0.123,0.293,0.205,0.435c0.086,0.143,0.189,0.27,0.316,0.38c0.129,0.11,0.279,0.197,0.453,0.261
			s0.381,0.095,0.623,0.095c0.18,0,0.324-0.016,0.436-0.048c0.109-0.03,0.197-0.058,0.26-0.078L133.771,87.066z M54.786,70.234
			l3.7-5.582h-1.692l-3.162,4.966H52.81v-4.966h-1.376v10.911h1.376v-4.854h0.838l3.052,4.854h1.534L54.786,70.234z M59.04,66.582
			c0,0.443,0.084,0.812,0.253,1.106c0.168,0.296,0.395,0.535,0.68,0.72c0.284,0.185,0.619,0.316,1.004,0.396
			s0.793,0.118,1.226,0.118h0.395v0.728c0,0.644-0.113,1.086-0.34,1.329c-0.227,0.242-0.545,0.363-0.957,0.363
			c-0.379,0-0.695-0.082-0.948-0.245c-0.253-0.164-0.454-0.309-0.601-0.435l-0.538,0.854c0.084,0.084,0.192,0.179,0.324,0.285
			c0.132,0.104,0.292,0.205,0.482,0.3c0.189,0.095,0.406,0.174,0.648,0.237s0.517,0.095,0.822,0.095
			c0.781,0,1.371-0.216,1.771-0.648c0.4-0.432,0.601-1.128,0.601-2.087v-3.463c0-0.327,0.01-0.646,0.032-0.957
			c0.021-0.312,0.042-0.52,0.063-0.625H62.74l-0.047,0.839h-0.032c-0.042-0.096-0.106-0.203-0.19-0.324
			c-0.084-0.122-0.189-0.232-0.316-0.332c-0.126-0.101-0.279-0.188-0.458-0.262c-0.179-0.073-0.39-0.11-0.633-0.11
			c-0.284,0-0.55,0.053-0.798,0.158c-0.248,0.105-0.464,0.253-0.649,0.443c-0.185,0.189-0.327,0.413-0.427,0.671
			C59.09,65.994,59.04,66.276,59.04,66.582z M61.333,65.554c0.179,0,0.337,0.027,0.474,0.079c0.137,0.053,0.256,0.116,0.355,0.189
			c0.1,0.074,0.185,0.156,0.253,0.246c0.069,0.089,0.129,0.166,0.182,0.229v1.676l-0.411-0.016
			c-0.612-0.021-1.075-0.127-1.392-0.316c-0.316-0.189-0.474-0.496-0.474-0.917c0-0.39,0.089-0.683,0.269-0.878
			C60.769,65.651,61.016,65.554,61.333,65.554z M69.128,71.12c-0.032,0.021-0.101,0.048-0.206,0.079
			c-0.105,0.031-0.248,0.048-0.427,0.048c-0.401,0-0.714-0.108-0.941-0.324c-0.227-0.217-0.387-0.45-0.483-0.704v-5.566h-1.281
			v7.591h1.17v-1.028h0.032c0.052,0.148,0.121,0.293,0.205,0.436c0.084,0.143,0.19,0.269,0.317,0.379
			c0.126,0.111,0.276,0.198,0.45,0.261c0.175,0.063,0.382,0.095,0.625,0.095c0.179,0,0.324-0.016,0.435-0.047
			c0.111-0.031,0.198-0.058,0.261-0.079L69.128,71.12z M73.635,71.199h-1.661v-4.206c0-0.538,0.069-0.904,0.206-1.1
			c0.137-0.194,0.369-0.292,0.696-0.292c0.189,0,0.353,0.026,0.49,0.079s0.237,0.101,0.3,0.142l0.174-1.027
			c-0.052-0.042-0.179-0.107-0.379-0.197c-0.2-0.09-0.469-0.135-0.807-0.135c-0.653,0-1.143,0.182-1.47,0.546
			c-0.327,0.363-0.49,0.967-0.49,1.811v4.38h-0.917v0.854l0.917,0.189l0.143,2.119h1.138v-2.119h1.818L73.635,71.199z
			 M74.631,68.448c0,0.695,0.082,1.296,0.245,1.802c0.163,0.507,0.385,0.921,0.664,1.241c0.28,0.322,0.601,0.56,0.965,0.712
			c0.364,0.153,0.75,0.229,1.162,0.229c0.422,0,0.812-0.076,1.17-0.229c0.358-0.152,0.669-0.39,0.933-0.712
			c0.263-0.32,0.472-0.734,0.624-1.241c0.153-0.506,0.23-1.106,0.23-1.802c0-0.706-0.08-1.313-0.238-1.819
			c-0.158-0.505-0.377-0.919-0.656-1.241c-0.28-0.321-0.604-0.556-0.973-0.703c-0.369-0.147-0.759-0.222-1.17-0.222
			c-0.422,0-0.812,0.074-1.17,0.222c-0.359,0.147-0.67,0.382-0.933,0.703c-0.264,0.322-0.472,0.732-0.625,1.233
			C74.708,67.122,74.631,67.73,74.631,68.448z M79.296,68.448c0,1.012-0.147,1.747-0.442,2.206
			c-0.295,0.458-0.707,0.688-1.233,0.688s-0.936-0.229-1.226-0.688c-0.29-0.459-0.435-1.194-0.435-2.206
			c0-1.013,0.148-1.74,0.443-2.183c0.295-0.443,0.707-0.664,1.233-0.664c0.527,0,0.936,0.221,1.226,0.664
			C79.151,66.708,79.296,67.436,79.296,68.448z M87.677,71.247h-0.949c0.243-0.401,0.363-0.854,0.363-1.36
			c0-0.4-0.065-0.762-0.197-1.083s-0.316-0.594-0.553-0.814c-0.238-0.222-0.517-0.39-0.838-0.506
			c-0.321-0.116-0.667-0.174-1.036-0.174c-0.074,0-0.143,0-0.206,0c-0.064,0-0.132,0.006-0.206,0.016
			c-0.126-0.053-0.258-0.137-0.395-0.253c-0.137-0.116-0.206-0.269-0.206-0.459c0-0.158,0.06-0.287,0.182-0.387
			c0.121-0.101,0.319-0.15,0.593-0.15h0.964c0.358,0,0.69-0.037,0.996-0.11c0.306-0.074,0.572-0.193,0.799-0.356
			s0.403-0.371,0.529-0.624s0.19-0.559,0.19-0.918c0-0.41-0.087-0.785-0.261-1.122c-0.174-0.338-0.419-0.628-0.735-0.87
			s-0.701-0.433-1.154-0.569S84.599,61.3,84.041,61.3c-0.812,0-1.429,0.177-1.851,0.53c-0.422,0.354-0.633,0.862-0.633,1.526
			c0,0.284,0.051,0.529,0.15,0.735c0.1,0.205,0.219,0.385,0.356,0.537c0.137,0.153,0.277,0.274,0.419,0.364
			c0.142,0.089,0.256,0.16,0.34,0.213v0.032c-0.326,0.242-0.49,0.596-0.49,1.06c0,0.199,0.04,0.373,0.119,0.521
			c0.079,0.147,0.168,0.269,0.269,0.363c0.1,0.096,0.201,0.171,0.301,0.229c0.1,0.058,0.176,0.098,0.229,0.119v0.031
			c-0.39,0.18-0.704,0.461-0.941,0.846c-0.237,0.385-0.355,0.878-0.355,1.479c0,0.422,0.068,0.793,0.206,1.115
			c0.137,0.321,0.321,0.588,0.553,0.799s0.503,0.369,0.814,0.474c0.311,0.105,0.646,0.158,1.004,0.158
			c0.359,0,0.696-0.063,1.012-0.189h2.309L87.677,71.247z M84.15,64.891c-0.221,0-0.417,0.016-0.584,0.047
			c-0.095-0.053-0.188-0.116-0.277-0.19c-0.09-0.073-0.171-0.163-0.246-0.269c-0.073-0.105-0.134-0.229-0.182-0.371
			s-0.071-0.309-0.071-0.499c0-0.812,0.448-1.217,1.345-1.217c0.77,0,1.338,0.149,1.708,0.45s0.553,0.646,0.553,1.036
			c0,0.369-0.116,0.63-0.348,0.782c-0.231,0.153-0.543,0.23-0.933,0.23H84.15z M85.843,69.887c0,0.549-0.129,0.938-0.387,1.17
			c-0.258,0.232-0.562,0.349-0.909,0.349c-0.369,0-0.686-0.116-0.949-0.349c-0.264-0.231-0.395-0.621-0.395-1.17
			c0-0.548,0.131-0.938,0.395-1.17c0.263-0.232,0.57-0.348,0.917-0.348c0.369,0,0.683,0.115,0.941,0.348
			S85.843,69.339,85.843,69.887z M92.469,71.12c-0.032,0.021-0.101,0.048-0.206,0.079c-0.106,0.031-0.248,0.048-0.427,0.048
			c-0.401,0-0.714-0.108-0.94-0.324c-0.228-0.217-0.388-0.45-0.483-0.704v-5.566h-1.281v7.591h1.17v-1.028h0.032
			c0.053,0.148,0.121,0.293,0.205,0.436s0.19,0.269,0.317,0.379c0.126,0.111,0.276,0.198,0.45,0.261
			c0.174,0.063,0.382,0.095,0.625,0.095c0.179,0,0.325-0.016,0.435-0.047c0.111-0.031,0.198-0.058,0.261-0.079L92.469,71.12z
			 M93.211,66.582c0,0.443,0.084,0.812,0.253,1.106c0.168,0.296,0.395,0.535,0.68,0.72c0.285,0.185,0.62,0.316,1.004,0.396
			s0.793,0.118,1.225,0.118h0.396v0.728c0,0.644-0.114,1.086-0.34,1.329c-0.227,0.242-0.545,0.363-0.957,0.363
			c-0.379,0-0.695-0.082-0.948-0.245c-0.253-0.164-0.454-0.309-0.601-0.435l-0.538,0.854c0.084,0.084,0.192,0.179,0.324,0.285
			c0.132,0.104,0.292,0.205,0.482,0.3s0.406,0.174,0.648,0.237c0.243,0.063,0.517,0.095,0.823,0.095c0.78,0,1.37-0.216,1.771-0.648
			c0.401-0.432,0.601-1.128,0.601-2.087v-3.463c0-0.327,0.01-0.646,0.032-0.957s0.042-0.52,0.063-0.625h-1.217l-0.047,0.839h-0.032
			c-0.042-0.096-0.105-0.203-0.189-0.324c-0.084-0.122-0.19-0.232-0.317-0.332c-0.126-0.101-0.279-0.188-0.458-0.262
			c-0.179-0.073-0.39-0.11-0.632-0.11c-0.285,0-0.551,0.053-0.798,0.158c-0.248,0.105-0.464,0.253-0.648,0.443
			c-0.185,0.189-0.327,0.413-0.427,0.671C93.262,65.994,93.211,66.276,93.211,66.582z M95.505,65.554
			c0.179,0,0.337,0.027,0.474,0.079c0.137,0.053,0.255,0.116,0.355,0.189c0.101,0.074,0.185,0.156,0.253,0.246
			c0.069,0.089,0.129,0.166,0.183,0.229v1.676l-0.412-0.016c-0.611-0.021-1.075-0.127-1.392-0.316
			c-0.316-0.189-0.474-0.496-0.474-0.917c0-0.39,0.089-0.683,0.269-0.878C94.941,65.651,95.188,65.554,95.505,65.554z
			 M105.674,68.653c0-0.77-0.092-1.418-0.27-1.945c-0.18-0.526-0.422-0.953-0.729-1.28c-0.305-0.326-0.656-0.562-1.051-0.703
			c-0.396-0.144-0.809-0.214-1.242-0.214c-0.273,0-0.502,0.019-0.688,0.055c-0.186,0.037-0.336,0.082-0.451,0.135v-3.21h-1.28
			v10.753h1.169v-0.807h0.032c0.041,0.084,0.113,0.185,0.213,0.301c0.1,0.115,0.227,0.224,0.381,0.324
			c0.152,0.1,0.338,0.187,0.553,0.261s0.473,0.11,0.768,0.11c0.391,0,0.746-0.071,1.066-0.213c0.32-0.143,0.596-0.367,0.822-0.672
			c0.227-0.306,0.4-0.699,0.521-1.179S105.674,69.317,105.674,68.653z M102.73,71.342c-0.4,0-0.719-0.082-0.955-0.245
			c-0.238-0.164-0.416-0.313-0.531-0.45v-4.665c0.115-0.085,0.266-0.161,0.451-0.229s0.414-0.104,0.688-0.104
			c0.295,0,0.563,0.049,0.799,0.144c0.238,0.095,0.443,0.255,0.617,0.481s0.309,0.527,0.402,0.901
			c0.096,0.374,0.143,0.836,0.143,1.384c0,0.506-0.039,0.936-0.119,1.289c-0.078,0.353-0.189,0.641-0.332,0.861
			c-0.141,0.222-0.314,0.382-0.514,0.482S102.963,71.342,102.73,71.342z M111.428,64.652v4.887c0,0.644-0.107,1.104-0.324,1.384
			s-0.545,0.419-0.986,0.419c-0.381,0-0.695-0.095-0.951-0.285c-0.252-0.189-0.453-0.373-0.6-0.554v-5.851h-1.281v11.18l1.281,0.143
			v-4.507h0.031c0.043,0.063,0.107,0.147,0.197,0.254c0.09,0.104,0.213,0.211,0.371,0.315c0.158,0.105,0.352,0.198,0.578,0.277
			s0.492,0.118,0.799,0.118c0.664,0,1.191-0.216,1.582-0.648c0.391-0.432,0.584-1.148,0.584-2.15v-4.981H111.428z M115.904,64.652
			h-1.281v7.591h1.281V64.652z M115.271,74.077c-0.264,0-0.475,0.084-0.635,0.253c-0.158,0.169-0.234,0.391-0.234,0.665
			c0,0.263,0.076,0.479,0.234,0.647c0.16,0.169,0.371,0.253,0.635,0.253c0.252,0,0.459-0.084,0.615-0.253
			c0.158-0.168,0.238-0.385,0.238-0.647c0-0.274-0.08-0.496-0.238-0.665C115.73,74.161,115.523,74.077,115.271,74.077z
			 M122.734,69.682c0-0.327-0.01-0.609-0.031-0.847c-0.021-0.236-0.043-0.445-0.064-0.625h-3.873
			c0.043-0.895,0.234-1.554,0.578-1.976c0.342-0.422,0.836-0.633,1.477-0.633c0.223,0,0.422,0.026,0.602,0.079
			s0.334,0.116,0.467,0.19c0.131,0.073,0.242,0.146,0.332,0.221c0.088,0.073,0.156,0.132,0.197,0.174l0.475-0.901
			c-0.053-0.053-0.131-0.129-0.238-0.229c-0.104-0.1-0.246-0.2-0.426-0.3c-0.178-0.101-0.4-0.188-0.664-0.262
			c-0.264-0.073-0.574-0.11-0.934-0.11c-0.473,0-0.904,0.079-1.287,0.237c-0.387,0.158-0.711,0.403-0.982,0.735
			c-0.268,0.332-0.477,0.754-0.623,1.265c-0.148,0.512-0.223,1.125-0.223,1.843c0,0.675,0.076,1.257,0.23,1.747
			c0.152,0.49,0.361,0.894,0.623,1.21c0.266,0.316,0.57,0.551,0.918,0.703c0.348,0.153,0.723,0.229,1.123,0.229
			c0.729,0,1.297-0.229,1.707-0.688C122.529,71.286,122.734,70.599,122.734,69.682z M120.332,71.389
			c-0.455,0-0.818-0.189-1.094-0.568c-0.271-0.38-0.43-0.928-0.473-1.646h2.768c0.01,0.053,0.018,0.13,0.023,0.23
			c0.006,0.1,0.008,0.207,0.008,0.323c0,0.527-0.105,0.936-0.316,1.226S120.732,71.389,120.332,71.389z M133.109,64.652h-1.172
			v0.854h-0.031c-0.031-0.063-0.1-0.156-0.205-0.276c-0.105-0.121-0.24-0.237-0.404-0.349c-0.162-0.11-0.359-0.208-0.592-0.292
			s-0.49-0.127-0.775-0.127c-0.338,0-0.641,0.051-0.908,0.15c-0.27,0.1-0.498,0.261-0.689,0.482
			c-0.189,0.222-0.334,0.509-0.436,0.862c-0.1,0.353-0.15,0.787-0.15,1.304v4.981h1.283v-4.887c0-0.632,0.102-1.083,0.307-1.352
			c0.207-0.27,0.525-0.403,0.957-0.403c0.369,0,0.68,0.092,0.934,0.277c0.252,0.184,0.453,0.365,0.6,0.545v5.819h1.283V64.652z
			 M139.211,64.652v4.887c0,0.644-0.107,1.104-0.324,1.384s-0.545,0.419-0.986,0.419c-0.381,0-0.695-0.095-0.951-0.285
			c-0.25-0.189-0.451-0.373-0.6-0.554v-5.851h-1.281v7.591h1.17v-0.854h0.031c0.033,0.064,0.102,0.156,0.207,0.277
			s0.242,0.237,0.412,0.348c0.168,0.11,0.367,0.209,0.598,0.293c0.234,0.084,0.496,0.126,0.793,0.126c0.338,0,0.643-0.05,0.916-0.15
			c0.275-0.1,0.506-0.261,0.697-0.481c0.189-0.222,0.336-0.509,0.441-0.862c0.107-0.354,0.158-0.788,0.158-1.305v-4.981H139.211z
			 M142.059,68.338c0,0.77,0.1,1.412,0.301,1.929c0.199,0.517,0.459,0.933,0.773,1.249c0.316,0.316,0.676,0.54,1.076,0.672
			s0.801,0.197,1.201,0.197c0.242,0,0.453-0.018,0.633-0.055s0.326-0.082,0.443-0.135v3.637l1.281,0.143V64.652h-1.17v0.807h-0.033
			c-0.031-0.063-0.09-0.15-0.174-0.261s-0.199-0.221-0.348-0.332c-0.146-0.11-0.332-0.206-0.555-0.285
			c-0.221-0.079-0.479-0.118-0.773-0.118c-0.357,0-0.697,0.071-1.02,0.214s-0.605,0.368-0.846,0.68
			c-0.244,0.312-0.436,0.712-0.578,1.202C142.129,67.048,142.059,67.642,142.059,68.338z M145.063,65.602
			c0.201,0,0.379,0.026,0.537,0.079s0.297,0.118,0.41,0.198c0.117,0.079,0.217,0.16,0.293,0.245c0.08,0.084,0.141,0.157,0.184,0.221
			v4.681c-0.117,0.073-0.25,0.138-0.402,0.189c-0.154,0.053-0.346,0.079-0.578,0.079c-0.295,0-0.572-0.05-0.83-0.149
			c-0.26-0.101-0.482-0.267-0.674-0.498c-0.189-0.232-0.34-0.533-0.449-0.902c-0.111-0.368-0.166-0.822-0.166-1.359
			c0-0.527,0.043-0.967,0.135-1.32c0.088-0.354,0.213-0.638,0.371-0.854c0.158-0.217,0.338-0.372,0.537-0.467
			C144.629,65.648,144.842,65.602,145.063,65.602z M160.055,65.38c-0.076-0.063-0.186-0.145-0.332-0.245
			c-0.148-0.1-0.342-0.2-0.578-0.3c-0.238-0.101-0.521-0.188-0.846-0.262c-0.328-0.073-0.703-0.11-1.123-0.11
			c-0.623,0-1.199,0.098-1.73,0.293c-0.533,0.194-0.992,0.514-1.377,0.956c-0.385,0.443-0.684,1.031-0.9,1.764
			s-0.326,1.637-0.326,2.712c0,1.022,0.135,1.887,0.404,2.594c0.27,0.705,0.621,1.28,1.059,1.723
			c0.438,0.443,0.934,0.762,1.488,0.957c0.553,0.195,1.117,0.293,1.699,0.293c0.41,0,0.76-0.037,1.051-0.111
			c0.289-0.073,0.537-0.163,0.742-0.269c0.207-0.105,0.373-0.211,0.498-0.316c0.129-0.105,0.232-0.194,0.318-0.269l-0.65-0.965
			c-0.051,0.053-0.131,0.124-0.236,0.214c-0.105,0.089-0.24,0.176-0.402,0.261c-0.164,0.085-0.359,0.158-0.586,0.222
			c-0.225,0.063-0.492,0.095-0.799,0.095c-0.41,0-0.803-0.074-1.178-0.222s-0.705-0.396-0.986-0.743
			c-0.287-0.348-0.516-0.804-0.689-1.368c-0.174-0.563-0.262-1.263-0.262-2.095c0-0.822,0.064-1.521,0.189-2.095
			c0.127-0.575,0.316-1.045,0.57-1.408c0.252-0.363,0.564-0.627,0.934-0.791c0.367-0.163,0.801-0.245,1.297-0.245
			c0.273,0,0.531,0.027,0.773,0.079c0.242,0.054,0.459,0.116,0.648,0.19v3.178h-1.738v1.092h3.068V65.38z M166.807,69.682
			c0-0.327-0.012-0.609-0.033-0.847c-0.021-0.236-0.041-0.445-0.063-0.625h-3.875c0.041-0.895,0.234-1.554,0.578-1.976
			c0.342-0.422,0.836-0.633,1.479-0.633c0.221,0,0.422,0.026,0.602,0.079s0.334,0.116,0.465,0.19
			c0.131,0.073,0.244,0.146,0.332,0.221c0.09,0.073,0.156,0.132,0.197,0.174l0.475-0.901c-0.053-0.053-0.131-0.129-0.236-0.229
			c-0.105-0.1-0.248-0.2-0.428-0.3c-0.18-0.101-0.4-0.188-0.664-0.262c-0.264-0.073-0.574-0.11-0.932-0.11
			c-0.477,0-0.904,0.079-1.289,0.237c-0.387,0.158-0.713,0.403-0.98,0.735c-0.27,0.332-0.477,0.754-0.625,1.265
			c-0.148,0.512-0.221,1.125-0.221,1.843c0,0.675,0.074,1.257,0.229,1.747c0.152,0.49,0.361,0.894,0.625,1.21
			c0.262,0.316,0.568,0.551,0.916,0.703c0.348,0.153,0.723,0.229,1.125,0.229c0.727,0,1.295-0.229,1.707-0.688
			C166.6,71.286,166.807,70.599,166.807,69.682z M164.4,71.389c-0.451,0-0.816-0.189-1.09-0.568
			c-0.275-0.38-0.434-0.928-0.475-1.646h2.768c0.012,0.053,0.02,0.13,0.023,0.23c0.006,0.1,0.008,0.207,0.008,0.323
			c0,0.527-0.105,0.936-0.314,1.226C165.109,71.244,164.803,71.389,164.4,71.389z M168.166,68.448c0,0.695,0.082,1.296,0.244,1.802
			c0.164,0.507,0.385,0.921,0.666,1.241c0.277,0.322,0.6,0.56,0.963,0.712c0.363,0.153,0.752,0.229,1.162,0.229
			c0.424,0,0.813-0.076,1.17-0.229c0.359-0.152,0.67-0.39,0.934-0.712c0.264-0.32,0.471-0.734,0.625-1.241
			c0.152-0.506,0.229-1.106,0.229-1.802c0-0.706-0.078-1.313-0.236-1.819c-0.16-0.505-0.377-0.919-0.658-1.241
			c-0.277-0.321-0.602-0.556-0.971-0.703s-0.76-0.222-1.17-0.222c-0.424,0-0.813,0.074-1.17,0.222
			c-0.359,0.147-0.67,0.382-0.934,0.703c-0.264,0.322-0.471,0.732-0.625,1.233C168.242,67.122,168.166,67.73,168.166,68.448z
			 M172.83,68.448c0,1.012-0.146,1.747-0.443,2.206c-0.295,0.458-0.705,0.688-1.232,0.688s-0.936-0.229-1.225-0.688
			c-0.291-0.459-0.436-1.194-0.436-2.206c0-1.013,0.146-1.74,0.443-2.183c0.295-0.443,0.705-0.664,1.232-0.664
			s0.936,0.221,1.225,0.664C172.686,66.708,172.83,67.436,172.83,68.448z M175.424,68.338c0,0.77,0.1,1.412,0.301,1.929
			c0.199,0.517,0.459,0.933,0.773,1.249c0.316,0.316,0.676,0.54,1.076,0.672s0.801,0.197,1.203,0.197
			c0.24,0,0.451-0.018,0.631-0.055s0.326-0.082,0.443-0.135v3.637l1.281,0.143V64.652h-1.172v0.807h-0.031
			c-0.031-0.063-0.088-0.15-0.174-0.261c-0.084-0.11-0.201-0.221-0.348-0.332c-0.146-0.11-0.332-0.206-0.553-0.285
			s-0.48-0.118-0.775-0.118c-0.357,0-0.697,0.071-1.02,0.214c-0.32,0.143-0.604,0.368-0.846,0.68
			c-0.244,0.312-0.436,0.712-0.578,1.202C175.494,67.048,175.424,67.642,175.424,68.338z M178.428,65.602
			c0.201,0,0.381,0.026,0.539,0.079s0.295,0.118,0.41,0.198c0.117,0.079,0.213,0.16,0.293,0.245
			c0.078,0.084,0.141,0.157,0.182,0.221v4.681c-0.117,0.073-0.25,0.138-0.404,0.189c-0.15,0.053-0.344,0.079-0.576,0.079
			c-0.295,0-0.572-0.05-0.832-0.149c-0.256-0.101-0.48-0.267-0.67-0.498c-0.191-0.232-0.34-0.533-0.451-0.902
			c-0.111-0.368-0.166-0.822-0.166-1.359c0-0.527,0.045-0.967,0.135-1.32s0.213-0.638,0.371-0.854
			c0.158-0.217,0.338-0.372,0.537-0.467C177.996,65.648,178.205,65.602,178.428,65.602z M182.65,66.582
			c0,0.443,0.084,0.812,0.254,1.106c0.168,0.296,0.395,0.535,0.68,0.72c0.283,0.185,0.619,0.316,1.004,0.396
			s0.793,0.118,1.225,0.118h0.395v0.728c0,0.644-0.113,1.086-0.34,1.329c-0.225,0.242-0.545,0.363-0.955,0.363
			c-0.381,0-0.697-0.082-0.949-0.245c-0.254-0.164-0.453-0.309-0.602-0.435l-0.537,0.854c0.084,0.084,0.191,0.179,0.324,0.285
			c0.131,0.104,0.293,0.205,0.482,0.3s0.406,0.174,0.648,0.237s0.516,0.095,0.822,0.095c0.779,0,1.371-0.216,1.77-0.648
			c0.402-0.432,0.604-1.128,0.604-2.087v-3.463c0-0.327,0.01-0.646,0.031-0.957c0.02-0.312,0.041-0.52,0.063-0.625h-1.219
			l-0.047,0.839h-0.031c-0.043-0.096-0.105-0.203-0.189-0.324c-0.084-0.122-0.189-0.232-0.316-0.332
			c-0.127-0.101-0.279-0.188-0.459-0.262c-0.18-0.073-0.389-0.11-0.633-0.11c-0.285,0-0.551,0.053-0.799,0.158
			s-0.463,0.253-0.646,0.443c-0.186,0.189-0.328,0.413-0.43,0.671C182.701,65.994,182.65,66.276,182.65,66.582z M184.943,65.554
			c0.18,0,0.338,0.027,0.475,0.079c0.137,0.053,0.254,0.116,0.355,0.189c0.1,0.074,0.186,0.156,0.252,0.246
			c0.068,0.089,0.131,0.166,0.182,0.229v1.676l-0.41-0.016c-0.611-0.021-1.076-0.127-1.391-0.316
			c-0.316-0.189-0.475-0.496-0.475-0.917c0-0.39,0.09-0.683,0.268-0.878C184.379,65.651,184.627,65.554,184.943,65.554z
			 M184.643,74.425c0-0.242-0.072-0.438-0.221-0.584c-0.148-0.148-0.326-0.222-0.537-0.222c-0.213,0-0.393,0.073-0.539,0.222
			c-0.148,0.146-0.221,0.342-0.221,0.584c0,0.243,0.072,0.438,0.221,0.585c0.146,0.148,0.326,0.222,0.539,0.222
			c0.211,0,0.389-0.073,0.537-0.222C184.57,74.863,184.643,74.668,184.643,74.425z M187.076,74.425c0-0.242-0.072-0.438-0.221-0.584
			c-0.146-0.148-0.326-0.222-0.537-0.222c-0.209,0-0.389,0.073-0.537,0.222c-0.146,0.146-0.221,0.342-0.221,0.584
			c0,0.243,0.074,0.438,0.221,0.585c0.148,0.148,0.328,0.222,0.537,0.222c0.211,0,0.391-0.073,0.537-0.222
			C187.004,74.863,187.076,74.668,187.076,74.425z M192.676,70.709c-0.084,0.095-0.236,0.224-0.459,0.388
			c-0.223,0.163-0.512,0.245-0.869,0.245c-0.338,0-0.596-0.079-0.775-0.237c-0.178-0.158-0.27-0.348-0.27-0.569
			c0-0.285,0.084-0.519,0.246-0.703c0.164-0.186,0.414-0.383,0.75-0.593l0.477-0.285c0.516-0.306,0.92-0.636,1.217-0.988
			c0.295-0.354,0.443-0.81,0.443-1.368c0-0.601-0.209-1.106-0.625-1.518c-0.418-0.412-1.016-0.617-1.795-0.617
			c-0.305,0-0.574,0.031-0.807,0.095s-0.436,0.138-0.609,0.222s-0.318,0.177-0.436,0.276c-0.115,0.101-0.211,0.192-0.283,0.277
			l0.615,1.012c0.064-0.063,0.141-0.137,0.23-0.221c0.09-0.085,0.197-0.166,0.324-0.245c0.127-0.08,0.27-0.146,0.426-0.198
			c0.158-0.053,0.344-0.079,0.555-0.079c0.379,0,0.67,0.084,0.871,0.253c0.199,0.169,0.299,0.374,0.299,0.617
			c0,0.179-0.025,0.335-0.07,0.467c-0.047,0.131-0.121,0.25-0.213,0.355c-0.098,0.104-0.213,0.205-0.348,0.3
			c-0.139,0.095-0.297,0.201-0.477,0.316l-0.475,0.3c-0.475,0.307-0.846,0.628-1.113,0.965c-0.27,0.338-0.404,0.77-0.404,1.298
			c0,0.284,0.055,0.545,0.166,0.782c0.111,0.236,0.268,0.442,0.467,0.617c0.199,0.174,0.436,0.311,0.703,0.41
			c0.27,0.101,0.557,0.15,0.861,0.15c0.297,0,0.549-0.028,0.76-0.087c0.211-0.058,0.393-0.132,0.547-0.222
			c0.152-0.09,0.279-0.179,0.379-0.269s0.182-0.166,0.244-0.229L192.676,70.709z M196.217,64.652h-1.279v7.591h1.279V64.652z
			 M195.584,74.077c-0.262,0-0.473,0.084-0.631,0.253s-0.238,0.391-0.238,0.665c0,0.263,0.08,0.479,0.238,0.647
			c0.158,0.169,0.369,0.253,0.631,0.253c0.254,0,0.459-0.084,0.619-0.253c0.158-0.168,0.234-0.385,0.234-0.647
			c0-0.274-0.076-0.496-0.234-0.665C196.043,74.161,195.838,74.077,195.584,74.077z M203.049,69.682c0-0.327-0.01-0.609-0.031-0.847
			c-0.021-0.236-0.041-0.445-0.064-0.625h-3.873c0.041-0.895,0.234-1.554,0.576-1.976c0.344-0.422,0.836-0.633,1.48-0.633
			c0.221,0,0.42,0.026,0.6,0.079s0.334,0.116,0.467,0.19c0.133,0.073,0.242,0.146,0.332,0.221c0.09,0.073,0.156,0.132,0.197,0.174
			l0.475-0.901c-0.053-0.053-0.133-0.129-0.236-0.229c-0.105-0.1-0.248-0.2-0.428-0.3c-0.18-0.101-0.4-0.188-0.664-0.262
			c-0.264-0.073-0.574-0.11-0.932-0.11c-0.477,0-0.904,0.079-1.291,0.237c-0.383,0.158-0.711,0.403-0.979,0.735
			c-0.27,0.332-0.477,0.754-0.625,1.265c-0.148,0.512-0.223,1.125-0.223,1.843c0,0.675,0.078,1.257,0.23,1.747
			s0.361,0.894,0.625,1.21c0.262,0.316,0.568,0.551,0.916,0.703c0.348,0.153,0.723,0.229,1.123,0.229
			c0.729,0,1.297-0.229,1.707-0.688C202.844,71.286,203.049,70.599,203.049,69.682z M200.645,71.389
			c-0.453,0-0.816-0.189-1.09-0.568c-0.275-0.38-0.434-0.928-0.475-1.646h2.768c0.01,0.053,0.018,0.13,0.023,0.23
			c0.004,0.1,0.008,0.207,0.008,0.323c0,0.527-0.105,0.936-0.316,1.226S201.045,71.389,200.645,71.389z"/>
	</g>
	<g id="Adler-und-Saeulenelement">
		<path d="M16.529,22.522c0.037-0.298,0.057-0.604,0.057-0.918c0-0.171,0.001-0.37-0.019-0.596c2.647-0.038,4.971-1.946,4.971-4.14
			c0-1.116-0.728-1.959-1.139-2.463c0.091-0.02,0.185-0.041,0.279-0.063c0.388,0.338,1.488,1.536,1.488,3.05
			C22.166,20.024,19.535,22.468,16.529,22.522 M13.861,13.355c-0.049-0.294-0.161-0.56-0.331-0.788
			c0.009-0.269,0.119-0.524,0.551-0.313c-0.234,0.239-0.053,0.663-0.053,0.663s0.479-0.223,0.379-0.538
			C15.117,12.549,14.606,13.501,13.861,13.355 M13.246,14.707c-0.095-0.394-0.297-0.798-0.553-1.102
			C12.459,13.329,12.072,13,11.552,13c-0.238,0-0.637,0.112-0.891,0.22c-0.094-0.173-0.279-0.589-0.279-0.776
			c0-0.192,0.326-0.388,0.949-0.388c1.371,0,2.19,0.619,2.19,1.658C13.521,14.079,13.375,14.411,13.246,14.707 M16.767,32.38
			c0.16,0,0.236,0.025,0.33,0.061c0.395,1.073,1.916,3.1,1.979,3.187l0.014,0.018l0.023-0.005c0.373-0.06,1.326-0.203,2.123-0.203
			h0.019c0.086,0,0.185,0,0.248,0.062c0.052,0.052,0.077,0.142,0.077,0.271c0,0.198-0.084,0.537-0.185,0.682
			c-0.279-0.305-0.732-0.441-1.458-0.441c-0.218,0-0.476,0.065-0.615,0.103l-0.057,0.013l-0.064,0.017l0.418,0.419
			c0.646,0.646,1.204,1.202,1.204,1.573c0,0.223-0.218,0.515-0.417,0.643c-0.043-0.679-0.729-1.588-1.397-2.097l-0.057-0.042
			l-0.011,0.239c-0.009,0.162-0.024,0.404-0.024,0.665c0,1.293-0.131,1.49-0.579,1.49c-0.069,0-0.175-0.021-0.239-0.044
			c0.252-0.313,0.352-0.725,0.352-1.447l-0.004-0.333l-0.004-0.269c0-0.297,0.03-0.517,0.054-0.692l0.014-0.101l-0.07-0.009
			c-0.21-0.029-0.599-0.082-0.897-0.082c-0.639,0-1.072,0.058-1.386,0.354c-0.208-0.168-0.42-0.456-0.42-0.638
			c0-0.271,0.167-0.292,0.388-0.292c0.111,0,0.214,0.017,0.358,0.033c0.275,0.042,0.688,0.103,1.54,0.103h0.053l-0.018-0.052
			c-0.215-0.618-0.808-1.516-1.758-2.671C16.384,32.582,16.468,32.38,16.767,32.38 M8.563,35.563l-0.017,0.052h0.053
			c0.851,0,1.265-0.061,1.54-0.103c0.144-0.017,0.247-0.033,0.359-0.033c0.219,0,0.388,0.021,0.388,0.292
			c0,0.182-0.212,0.47-0.418,0.638c-0.314-0.296-0.748-0.354-1.386-0.354c-0.299,0-0.69,0.053-0.898,0.082L8.15,36.141l-0.038,0.005
			l0.012,0.101c0.025,0.176,0.056,0.396,0.056,0.692l-0.004,0.269L8.172,37.54c0,0.723,0.1,1.135,0.354,1.447
			c-0.066,0.023-0.171,0.044-0.24,0.044c-0.45,0-0.58-0.197-0.58-1.49c0-0.261-0.014-0.503-0.022-0.665L7.67,36.635l-0.056,0.044
			c-0.667,0.509-1.355,1.418-1.396,2.097c-0.201-0.128-0.418-0.42-0.418-0.643c0-0.371,0.558-0.928,1.204-1.573l0.371-0.371
			l0.047-0.048l-0.122-0.029c-0.14-0.037-0.397-0.103-0.616-0.103c-0.725,0-1.177,0.137-1.457,0.441
			c-0.101-0.145-0.185-0.483-0.185-0.682c0-0.129,0.025-0.219,0.077-0.271c0.062-0.062,0.161-0.062,0.247-0.062h0.019
			c0.797,0,1.751,0.144,2.123,0.203l0.023,0.005l0.014-0.018c0.065-0.087,1.585-2.113,1.981-3.187
			c0.091-0.035,0.168-0.061,0.328-0.061c0.299,0,0.383,0.202,0.469,0.512C9.371,34.047,8.778,34.944,8.563,35.563 M4.454,17.393
			c0-1.514,1.102-2.712,1.49-3.05c0.093,0.022,0.186,0.044,0.279,0.063c-0.412,0.504-1.14,1.347-1.14,2.463
			c0,2.216,2.368,4.141,5.049,4.141c-0.017,0.189-0.027,0.39-0.027,0.595c0,0.327,0.019,0.632,0.051,0.918
			C7.124,22.505,4.454,20.044,4.454,17.393 M24.793,22.061c1.36,2.151,2.425,2.115,4.033,2.115c-1.331-1.02-2.21-2.325-2.63-2.992
			l-2.484-3.977c-0.242-1.228-0.877-2.376-1.829-3.229c0.32-0.121,0.586-0.248,0.746-0.37c-1.623,0-3.23-0.823-4.116-0.823
			c-0.569,0-0.934,0.34-0.934,0.789c0.036,0.501,0.551,1.01,1.504,1.01c0.215,0,0.491-0.028,0.794-0.078
			c0.516,0.719,0.932,1.368,0.932,2.297c0,1.739-2.081,3.097-4.182,3.097c-0.119,0-0.233-0.006-0.351-0.014
			c-0.19-0.432-0.824-1.156-0.824-1.979c0-1.384,0.902-2.513,0.902-3.883c0-0.853-0.415-1.38-0.574-1.599
			c0.258-0.239,0.54-0.533,0.606-0.734c-0.15,0.064-0.328,0.073-0.587,0.073c-1.007,0-1.829-0.263-2.628-0.263
			c-0.457,0-0.58,0.141-0.58,0.275c0,0.049,0.006,0.1,0.02,0.124c-0.17-0.067-0.33-0.11-0.52-0.146
			c-0.237-0.045-0.491-0.067-0.761-0.067c-0.973,0-1.318,0.408-1.318,0.757c0,0.296,0.232,0.835,0.497,1.247
			c0.379-0.191,0.834-0.32,1.042-0.32c0.517,0,0.975,0.491,1.219,1.073c-0.347,0.043-0.414,0.058-0.765,0.058
			c-0.947,0-1.592-0.339-1.725-0.339c-0.012,0-0.038,0.007-0.038,0.027c0,0.133,0.269,0.484,0.797,0.677
			c0.698,0.255,1.742,0.361,1.916,0.391c0,0.03-0.176,0.36-0.374,0.424c-0.042,0.014-0.075,0.015-0.124,0.004
			c-0.728-0.144-0.931-0.204-1.855-0.556c-0.028-0.01-0.045,0.007-0.045,0.037c0,0.365,0.946,1.171,1.793,1.48
			c-0.708,0.904-1.592,1.829-2.009,3.238c-0.118,0.008-0.233,0.014-0.351,0.014c-2.101,0-4.182-1.357-4.182-3.097
			c0-0.929,0.416-1.578,0.932-2.297c0.303,0.05,0.578,0.078,0.794,0.078c0.953,0,1.469-0.509,1.506-1.01
			c0-0.449-0.365-0.789-0.936-0.789c-0.885,0-2.491,0.823-4.117,0.823c0.161,0.122,0.427,0.249,0.746,0.37
			c-0.95,0.854-1.585,2.002-1.827,3.229l-2.484,3.977c-0.419,0.667-1.301,1.973-2.632,2.992c1.608,0,2.674,0.036,4.035-2.115
			l1.274-2.038c0.095,0.264,0.21,0.522,0.347,0.774l-2.534,4.054c-0.421,0.673-1.296,1.967-2.631,2.992
			c1.607,0,2.674,0.038,4.034-2.112l2.181-3.492c0.164,0.174,0.335,0.344,0.515,0.507l-3.077,4.927
			c-0.422,0.674-1.292,1.966-2.63,2.99c1.608,0,2.674,0.039,4.033-2.113l3-4.804c0.198,0.125,0.4,0.246,0.61,0.36l-3.664,5.861
			c-0.422,0.674-1.292,1.962-2.63,2.99c1.608,0,2.673,0.037,4.035-2.113l3.771-6.036c0.223,0.085,0.449,0.167,0.679,0.24
			l-4.262,6.821c-0.416,0.664-1.305,1.976-2.627,2.989c1.606,0,2.673,0.037,4.032-2.112l4.542-7.27
			c0.047,0.008,0.092,0.015,0.137,0.024c0.124,0.394,0.21,0.76,0.21,1.126c0,2.283-1.499,4.301-3.298,5.858
			c0.115,0.051,0.316,0.067,0.5,0.067c0.372,0,0.611-0.02,0.78-0.049c-0.417,0.947-1.313,2.171-1.765,2.804
			c-0.588-0.106-1.445-0.188-2.006-0.188c-0.587,0-0.654,0.343-0.654,0.649c0,0.533,0.25,0.957,0.54,1.193
			c0.109-0.272,0.328-0.637,1.413-0.637c0.021,0,0.058,0.003,0.109,0.007c-0.317,0.353-1.31,1.155-1.31,1.801
			c0,0.428,0.469,1.069,1.087,1.069c-0.036-0.138-0.032-0.265-0.032-0.359c0-0.524,0.464-1.137,0.856-1.564
			c-0.012,0.128-0.005,0.114-0.005,0.263c0,1.237,0.112,1.807,0.897,1.807c0.385,0,0.651-0.212,0.742-0.275
			c-0.51-0.47-0.537-0.839-0.537-1.532c0.001-0.181,0.002-0.357,0.005-0.601c0.001-0.16-0.001-0.369-0.027-0.521
			c0.28-0.038,0.395-0.038,0.611-0.038c0,0,1.115-0.089,1.385,0.492c0.303-0.278,0.743-0.671,0.743-1.102
			c0-0.286-0.136-0.609-0.711-0.609c-0.217,0-0.902,0.134-1.475,0.134c0.155-0.343,0.838-1.344,1.433-2.071
			c0.09,0.282,0.23,0.586,0.541,0.836c0.044-0.468,0.318-1.946,1.049-2.812c0.085,0.585,0.199,1.184,0.199,2.447
			c0,3.075-0.739,5.347-2.308,5.779c0.205,0.354,0.637,0.675,1.084,0.675c0.574,0,0.887-0.649,1.206-1.263
			c0.167,0.453,0.625,1.561,1.084,1.561s0.919-1.107,1.085-1.561c0.318,0.613,0.631,1.263,1.206,1.263
			c0.448,0,0.88-0.32,1.084-0.675c-1.569-0.433-2.309-2.704-2.309-5.779c0-1.264,0.114-1.862,0.199-2.447
			c0.732,0.865,1.007,2.344,1.048,2.812c0.313-0.25,0.453-0.554,0.542-0.836c0.593,0.728,1.278,1.729,1.433,2.071
			c-0.573,0-1.259-0.134-1.475-0.134c-0.574,0-0.71,0.323-0.71,0.609c0,0.431,0.44,0.823,0.743,1.102
			c0.267-0.581,1.385-0.492,1.385-0.492c0.215,0,0.33,0,0.611,0.038c-0.027,0.152-0.028,0.361-0.027,0.521
			c0.003,0.243,0.003,0.42,0.004,0.601c0,0.693-0.026,1.063-0.537,1.532c0.092,0.063,0.358,0.275,0.743,0.275
			c0.785,0,0.898-0.569,0.898-1.807c0-0.148,0.004-0.135-0.006-0.263c0.392,0.428,0.855,1.04,0.855,1.564
			c0,0.095,0.005,0.222-0.034,0.359c0.62,0,1.09-0.642,1.09-1.069c0-0.646-0.993-1.448-1.312-1.801
			c0.052-0.004,0.089-0.007,0.109-0.007c1.086,0,1.306,0.364,1.414,0.637c0.29-0.236,0.54-0.66,0.54-1.193
			c0-0.307-0.066-0.649-0.654-0.649c-0.561,0-1.417,0.082-2.006,0.188c-0.454-0.633-1.346-1.856-1.765-2.804
			c0.168,0.029,0.409,0.049,0.78,0.049c0.186,0,0.385-0.017,0.501-0.067c-1.799-1.558-3.298-3.575-3.298-5.858
			c0-0.366,0.086-0.732,0.21-1.126c0.043-0.01,0.091-0.017,0.137-0.024l4.542,7.27c1.359,2.149,2.426,2.112,4.033,2.112
			c-1.323-1.014-2.212-2.325-2.628-2.989l-4.263-6.821c0.231-0.073,0.458-0.155,0.681-0.24l3.77,6.036
			c1.361,2.15,2.427,2.113,4.035,2.113c-1.338-1.028-2.208-2.316-2.63-2.99l-3.662-5.861c0.207-0.114,0.411-0.235,0.607-0.36
			l3.001,4.804c1.361,2.152,2.425,2.113,4.033,2.113c-1.338-1.024-2.206-2.316-2.63-2.99l-3.077-4.927
			c0.18-0.163,0.354-0.333,0.514-0.507l2.184,3.492c1.359,2.15,2.425,2.112,4.033,2.112c-1.337-1.025-2.209-2.319-2.631-2.992
			l-2.533-4.054c0.135-0.252,0.251-0.511,0.347-0.774L24.793,22.061z"/>
		<path d="M41.547,39.348h-4.651V12.771h4.651V39.348z"/>
		<path fill="#FF0000" d="M41.547,65.924h-4.651V39.348h4.651V65.924z"/>
		<path fill="#FFCC00" d="M41.547,92.5h-4.651V65.924h4.651V92.5z"/>
	</g>
</g>
</svg>
